Patient4_TMGait_0pt6_02_left_43_EMG.mot
version=1
nRows=30
nColumns=33
inDegrees=no
endheader
time	1LAddLong	2LGlutMax	3LGlutMed	4LIliopsoas	5LSemiMemb	6LBicFemLong	7LRecFem	8LVastMed	9LVastLat	10LGasMed	11LTibAnt	12lTibPost	13LPeroneusLong	14LSol	15LExtDigLong	16LFlexDigLong	17RAddLong	18RGlutMax	19RGlutMed	20RIliopsoas	21RSemiMemb	22RBicFemLong	23RRecFem	24RVastMed	25RVastLat	26RGasMed	27RTibAnt	28RTibPost	29RPeroneusLong	30RSol	31RExtDigLong	32RFlexDigLong
52.5	0.015259	0.23636	-0.015411	0.002289	0.009308	-0.040131	0.099792	0.005646	0.22217	0.011444	0.30609	0.010986	-0.02243	0.059357	0.41306	-0.00412	-0.054779	0.41367	0.3981	0.072174	0.054016	0.032654	-0.14694	0.075531	0.20844	0.016632	-0.084686	-0.010223	-0.71137	0.057983	0.010681	0.006866
52.501	0.006409	0.20645	-0.025635	0.029602	0.010986	-0.0354	0.10605	0.001984	0.21683	-0.009155	0.15106	0.015106	-0.020447	0.12253	0.14633	-0.18768	-0.030975	0.44113	0.35568	0.066833	0.059052	0.092926	-0.023346	0.02182	0.1564	0.00061	0.14969	-0.006409	-0.64163	0.11383	0	0.001221
52.502	0.00946	0.22522	-0.020599	0.014191	0.020447	-0.028381	0.096741	0.001526	0.21774	-0.05249	-0.19409	0.010223	0.04776	0.057526	0.24902	0.23453	-0.021515	0.49988	0.13184	0.13687	0.10727	0.007782	-0.011139	-0.08667	0.076752	-0.006104	0.15961	-0.005188	0.2507	0.18631	0.000305	-0.009155
52.503	0.008087	0.19348	-0.008545	-0.013733	0.020905	-0.027313	0.090027	0.006866	0.20096	-0.082855	-0.010681	0.003967	0.076599	0.060425	-0.010071	-0.47287	0.003662	0.53467	0.33463	0.051422	0.036011	-0.032501	-0.016479	-0.19073	0.027008	-0.003662	0.058899	-0.011292	-0.16953	0.19943	-0.000305	-0.004272
52.504	0.005188	0.17838	-0.008087	-0.019836	0.017395	-0.042267	0.094604	0.005951	0.19836	-0.09201	-0.023193	0.007019	0.046844	0.009613	0.000153	0.14267	0.000305	0.57175	-0.2153	-0.029144	-0.16464	0.003967	-0.13473	-0.2504	0.04715	-0.006256	0.011902	-0.004272	-0.088959	0.16846	-0.002441	-0.014648
52.505	0.003815	0.1915	-0.004425	-0.003052	0.012817	-0.048218	0.10635	0.005188	0.19379	-0.074158	0.067902	-0.002747	0.013123	-0.10452	-0.24368	0.33386	-0.009613	0.56046	-0.035858	-0.088959	-0.12985	0.025635	-0.10986	-0.26459	0.047455	-0.013275	0.050812	-0.003204	0.35431	0.098114	-0.000305	-0.014191
52.506	0.000916	0.15076	-0.001678	-0.000916	0.03067	-0.037842	0.1239	0.007172	0.17273	-0.061798	0.075989	0.019531	0.032043	-0.08255	-0.23941	-0.050354	0.020447	0.62363	0.45151	-0.16113	-0.18433	-0.031433	-0.16174	-0.23178	0.52826	-0.012512	0.1152	-0.006561	-0.11078	0.039063	-0.001526	-0.011597
52.507	-0.001678	0.14603	-0.002136	-0.019531	0.013428	-0.018768	0.11902	0.006256	0.15518	-0.032501	0.093689	0.001678	0.06012	-0.017395	-0.13794	-0.39825	0.03067	0.59006	0.54047	-0.21225	-0.14114	-0.11643	-0.20035	-0.036163	0.59052	-0.007935	0.18692	-0.001984	-0.42618	0.042572	-0.00061	-0.009003
52.508	-0.000916	0.14816	-0.015869	0.010529	0.007935	0.002136	0.11658	0.004883	0.16708	0.005951	0.041199	-0.005341	0.051727	0.034485	-0.024414	-0.22903	-0.000153	0.5545	0.56427	-0.11856	-0.19287	-0.1004	-0.2092	0.1178	0.43396	-0.009308	0.1947	-0.002747	-0.18417	-0.009613	0.003967	-0.019531
52.509	-0.008545	0.12177	-0.011444	0.003967	0.013275	0.014496	0.12085	0.010529	0.15152	0.005493	-0.02655	-0.006104	0.059052	0.12451	0.049438	0.12207	-0.024414	0.52643	0.51254	-0.022583	0.025024	-0.002747	-0.20493	0.21973	0.14358	-0.017242	0.18433	-0.010071	-0.12421	0.030823	0.002136	-0.018311
52.51	-0.000916	0.07782	-0.029297	0.015106	0.011597	0.020294	0.12314	0.002441	0.15305	0.022888	-0.093079	-0.014648	0.044098	0.18021	0.44876	0.19119	-0.031738	0.4599	0.20935	0.063477	0.28656	-0.045319	-0.051422	0.30807	-0.11002	-0.019531	0.19287	-0.010986	-0.093689	0.058289	0.000458	-0.004578
52.511	-0.004578	0.040436	-0.017548	0.016937	0.007782	0.00473	0.10559	0.002136	0.14923	0.067596	-0.087128	-0.00351	0.04425	0.13763	0.033264	0.14221	-0.010376	0.40634	-0.33707	0.21408	0.21454	-0.13977	0.23331	0.27649	-0.36941	-0.015564	0.21744	-0.010376	-0.12985	0.16617	-0.002441	-0.015564
52.512	-0.007019	0.036926	-0.001984	0.023956	0.027008	0.00351	0.11139	0.007629	0.14648	0.092316	-0.082397	-0.014038	0.032806	0.093231	0.17212	0.03479	0.018616	0.41779	-0.15671	0.058441	0.12924	-0.21698	0.57541	0.024261	-0.43716	-0.00946	0.30868	-0.009155	-0.17731	0.14893	-0.001068	-0.014038
52.513	0.007172	0.004578	-0.001068	0.014648	0.00351	0.00061	0.081787	0.006561	0.13977	0.054932	0.013733	-0.006256	0.042877	0.050659	-0.15808	-0.30731	0.056763	0.38345	0.12314	-0.028534	0.028229	-0.25879	0.46661	-0.2536	-0.13473	-0.013733	0.35172	-0.009308	-0.23972	0.050507	-0.005035	-0.010529
52.514	0.000153	0.022583	0.018921	-0.010376	0.022278	0	0.074463	0.00885	0.12741	-0.008392	0.1004	-0.011444	0.055695	-0.05188	-0.14694	0.59662	0.031738	0.33569	-0.18784	-0.023499	-0.066833	-0.23682	0.13123	-0.32349	-0.15945	-0.005951	0.052338	-0.005493	-0.20767	0.023041	0.000916	-0.016632
52.515	-0.002747	0.027313	0.030823	-0.01358	0.006866	0.000458	0.078888	0.001831	0.12543	-0.030212	0.072021	-0.002136	0.06485	-0.068817	0.19119	-0.50247	0.006104	0.35645	1.0933	-0.007324	-0.14252	-0.25238	0.012054	-0.18188	-0.62775	-0.000305	-0.27756	-0.002747	-0.14526	-0.019836	0	-0.00351
52.516	0.001984	-0.016174	0.008087	0.001831	0.009155	-0.006256	0.088959	0.002747	0.12436	-0.040894	-0.053253	-0.002899	0.076752	0.058136	-0.067902	0.24948	-0.012817	0.27679	0.91873	0.12344	0.041656	-0.25726	-0.075836	-0.16769	-0.23834	0.012817	-0.074921	-0.002747	-0.059509	-0.21942	0	-0.00061
52.517	0.011292	-0.021667	0.005493	0.005493	0.013123	-0.001221	0.096283	0.008087	0.12024	-0.024567	-0.13458	-0.007172	0.053864	0.042419	-0.062408	0.20828	0.019531	0.22461	-0.089722	0.18478	0.11765	-0.19363	-0.086517	0.016174	-0.034637	0.019379	0.06073	-0.005798	0.14008	-0.47791	-0.00061	0.002441
52.518	0.00885	-0.036163	-0.007629	0.00412	0.009003	-0.011139	0.075836	0.005188	0.11185	-0.022888	-0.093384	-0.003967	0.027618	-0.092163	-0.037079	0.13092	0.031281	0.21332	0.11002	0.06424	-0.11261	-0.09903	-0.18723	0.1561	0.45441	0.015564	-0.42908	-0.013123	0.24612	-0.38879	0	-0.002747
52.519	0.005951	-0.027313	0.010376	0.001526	0.007477	-0.000458	0.079803	0.006104	0.10742	0.005951	0.051117	-0.001526	0.008087	-0.084076	-0.070953	0.031738	0.036469	0.20462	0.32028	0.029907	-0.24521	-0.075989	-0.1268	0.02533	0.62408	-0.005951	-0.52826	-0.011749	0.034332	-0.13107	-0.001373	0.004578
52.52	-0.000458	-0.054626	-0.00412	0.00885	0.006561	0.00061	0.083466	0.008392	0.10086	0.011444	0.13214	0.00946	0.017395	-0.027771	-0.055237	-0.008087	0.037689	0.14343	0.30609	0.036469	-0.097961	-0.13062	-0.16724	-0.041199	0.75867	0.003052	-0.31479	-0.002594	0.016022	0.040436	-0.003357	0.000305
52.521	0.002594	-0.075073	-0.010376	0.003815	0.012817	0.010376	0.093536	0.012512	0.091553	0.022888	0.21454	-0.00351	0.015564	-0.032349	0.094757	-0.029755	0.040894	0.090179	0.20477	0.032501	-0.03418	-0.17456	-0.16373	0.10864	0.7515	0.007629	-0.25223	-0.005646	0.041046	0.10635	-0.003052	-0.008392
52.522	-0.000458	-0.05249	-0.020294	0.012665	0.009308	0.003815	0.09964	0.007629	0.086365	0.0177	-0.045166	-0.010223	0.06073	-0.031738	0.025177	-0.06012	0.018005	0.095062	-0.085754	-0.034027	0.1416	-0.17593	-0.11978	0.37689	0.32608	0.003967	-0.10757	0.008087	-0.10086	0.13794	0.00061	-0.00412
52.523	-0.002594	-0.041656	-0.01358	0.012512	0.005493	-0.021515	0.078583	0.014191	0.097198	0.019531	-0.068054	-0.002594	0.062561	-0.12512	0.020142	-0.044556	0.028534	0.098572	-0.22003	-0.16556	0.014954	-0.23071	0.14786	0.21774	-0.41245	0.005798	0.14557	-0.002441	-0.2388	0.092316	-0.002899	-0.010529
52.524	-0.001068	-0.058136	-0.009918	0.00412	0.012512	-0.004425	0.070648	0.012054	0.084991	0.016022	0.005493	-0.002441	0.065155	-0.11276	0.083008	-0.033875	0.023956	0.082397	0.24292	-0.16693	-0.074463	-0.24582	0.30914	0.25085	-0.68787	0.006409	0.36758	-0.002747	-0.35523	0.020752	-0.000763	-0.014648
52.525	-0.001678	-0.005493	-0.025024	-0.00412	0.014038	-0.016785	0.084534	0.009308	0.087738	-0.048828	0.000153	-0.003204	0.048981	-0.08667	-0.076904	-0.057831	-0.015564	0.073395	0.016632	-0.046692	-0.045624	-0.21362	0.15808	0.2832	-0.81222	0.006561	0.010223	-0.003967	-0.37705	-0.057068	-0.001984	-0.01236
52.526	-0.080566	-0.047302	-0.020905	0.004578	0.011902	-0.015411	0.075226	0.009308	0.080414	-0.044403	-0.001373	-0.005035	0.054474	-0.12787	-0.069733	-0.01297	-0.057983	0.020447	-0.52887	0.013428	-0.058594	-0.19318	-0.11581	0.092163	-0.54886	0.005646	-0.36926	0.001831	0.20844	-0.066223	0	-0.013123
52.527	-0.041351	-0.007782	-0.018311	0.00473	0.022125	-0.014801	0.074158	0.014038	0.07843	-0.022583	-0.015869	-0.007172	0.042572	-0.15625	0.031586	0.024719	-0.078125	0.045624	-0.39597	0.044861	0.063171	-0.15182	-0.24643	-0.016022	-0.17425	0.011902	-0.22369	-0.001373	0.13275	-0.16296	-0.001526	-0.014191
52.528	0.003815	-0.020447	-0.015259	0.001221	0.016632	-0.001678	0.075073	0.010529	0.077515	-0.005951	0.016785	-0.001526	0.052185	0.029449	0.063019	0.005341	-0.044556	0.041962	-0.3186	0.010223	0.084076	-0.159	-0.12589	-0.36743	-0.052948	0.008392	0.60059	-0.005341	-0.14465	-0.12634	-0.001984	-0.013123
52.529	0.013885	0.003967	-0.020905	0.009155	0.001831	-0.012512	0.070801	0.016327	0.079193	-0.041199	0.007629	-0.003052	0.09613	0.078583	0.077515	-0.004578	-0.030823	0.056152	0.048981	0.02594	0.041046	-0.13962	0.058899	-0.41901	-0.068817	0.008392	1.0144	-0.00412	0.073853	0.041962	-0.000153	-0.016479
